<?xml version="1.0" encoding="UTF-8" standalone="no"?>
<!-- Created with Inkscape (http://www.inkscape.org/) -->

<svg
   width="400mm"
   height="400mm"
   viewBox="0 0 399.99999 400.00001"
   version="1.1"
   id="svg11476"
   xml:space="preserve"
   inkscape:version="1.2 (dc2aedaf03, 2022-05-15)"
   sodipodi:docname="coal.svg"
   xmlns:inkscape="http://www.inkscape.org/namespaces/inkscape"
   xmlns:sodipodi="http://sodipodi.sourceforge.net/DTD/sodipodi-0.dtd"
   xmlns="http://www.w3.org/2000/svg"
   xmlns:svg="http://www.w3.org/2000/svg"><sodipodi:namedview
     id="namedview11478"
     pagecolor="#505050"
     bordercolor="#ffffff"
     borderopacity="1"
     inkscape:showpageshadow="0"
     inkscape:pageopacity="0"
     inkscape:pagecheckerboard="1"
     inkscape:deskcolor="#505050"
     inkscape:document-units="mm"
     showgrid="false"
     inkscape:zoom="0.37282197"
     inkscape:cx="500.23876"
     inkscape:cy="488.16866"
     inkscape:window-width="1920"
     inkscape:window-height="1017"
     inkscape:window-x="-8"
     inkscape:window-y="-8"
     inkscape:window-maximized="1"
     inkscape:current-layer="layer1" /><defs
     id="defs11473" /><g
     inkscape:label="Layer 1"
     inkscape:groupmode="layer"
     id="layer1"
     transform="translate(-4.8536174,-20.085366)"><path
       style="opacity:1;fill:#0d0d0d;fill-opacity:1;fill-rule:evenodd;stroke-width:10.2138"
       d="M 53.945611,176.08446 C 9.3895936,185.4649 0.78913258,282.78462 23.067149,316.78791 c 22.278025,34.00343 52.757988,91.45719 91.451401,94.97484 38.69341,3.51726 91.47434,12.49341 104.37217,-8.61199 12.89783,-21.10549 10.93976,-25.38573 10.93976,-25.38573 0,0 77.74516,16.40953 105.88572,-2.35062 28.14051,-18.76053 69.17905,-57.47096 64.48883,-100.85477 -4.68976,-43.38341 -30.06972,-67.19218 -30.06972,-67.19218 0,0 14.07009,-12.10659 -3.51765,-41.41983 C 349.02966,136.63455 269.29787,63.937635 238.81221,39.314763 208.32647,14.691487 119.21439,25.244439 103.97153,36.969453 88.728672,48.694907 66.450651,88.560919 66.450651,88.560919 c 0,0 -17.587898,0 -21.105477,16.415071 -3.517588,16.41567 8.600437,71.10847 8.600437,71.10847 z"
       id="path12665"
       sodipodi:nodetypes="cscscccccccccc" /><path
       style="fill:#202020;fill-opacity:1;fill-rule:evenodd;stroke-width:9.67688"
       d="m 60.690971,179.76978 c -42.213533,8.88707 -49.989708,101.09032 -28.882948,133.30595 21.106772,32.2156 51.100597,86.64883 87.759757,89.98148 36.65913,3.33263 83.31621,14.44147 95.53593,-5.55442 12.21972,-19.99589 11.10883,-27.77205 11.10883,-27.77205 0,0 79.98353,16.66323 106.64472,-1.11089 26.66121,-17.77414 65.5421,-51.10061 61.09856,-92.20326 -4.44351,-41.10264 -33.32649,-69.9856 -33.32649,-69.9856 0,0 13.33059,-13.33064 -3.33265,-41.10267 C 340.63345,137.55626 265.09341,68.681507 236.21048,45.352979 207.32754,22.024422 122.90043,32.022371 108.45895,43.131208 94.017451,54.24001 72.910682,92.010043 72.910682,92.010043 c 0,0 -16.66324,0 -19.995887,15.552347 -3.332651,15.5524 7.776176,72.20739 7.776176,72.20739 z"
       id="path12665-6" /><path
       style="opacity:1;fill:#171717;fill-opacity:1;fill-rule:evenodd;stroke-width:9.67688"
       d="m 379.22763,323.32668 c -15.42588,19.8048 -29.72206,36.81862 -50.86194,44.77423 -31.36759,11.80463 -76.99356,3.45324 -100.54562,-0.19626 -4.12073,-0.63857 -3.23293,-0.0282 -4.12395,4.51669 -1.85978,9.48433 -4.88876,19.96521 -12.17544,26.3147 -6.08846,5.30538 -12.12706,7.24233 -23.17264,7.06957 -20.72111,-0.32405 -50.68352,-1.53968 -72.46356,-5.49856 -20.987736,-3.8133 -36.710088,-23.88089 -50.665589,-40.35573 -13.017397,-15.36735 -19.044452,-26.83897 -7.462369,-29.75127 18.184153,-4.57239 28.079013,26.20961 45.559748,32.99153 19.40944,7.53019 49.66777,23.80201 62.05551,7.06959 21.86838,-47.0542 16.77962,-69.52012 51.05835,-68.33957 14.40892,0.96915 16.30486,32.42462 30.63499,30.63497 25.39859,-3.17195 13.96583,-62.16702 39.27564,-65.98306 10.81555,-1.63071 13.7059,24.50819 24.3509,21.99438 17.50914,-4.13482 18.0348,-32.35367 19.6378,-50.27285 0.52728,-59.32839 50.06206,-67.66121 28.51211,-33.03649 -0.5324,0.85542 0.79301,1.91616 1.476,2.72154 22.15171,26.12013 49.21667,76.66934 18.91006,115.34669 z"
       id="path12745"
       sodipodi:nodetypes="cassassssaccaaacsscc" /><path
       style="fill:#0f0f0f;fill-opacity:1;fill-rule:evenodd;stroke-width:8.21007"
       d="m 328.78668,369.2085 c -31.09812,11.82113 -76.42809,2.50423 -99.80718,-0.14085 -4.09048,-0.46336 -3.20922,-0.0283 -4.09367,3.27512 -1.84613,6.87818 -6.92026,17.74983 -14.04982,23.40294 -7.0643,5.60139 -14.78727,8.39421 -25.75175,8.26848 -20.56891,-0.23512 -51.09678,-4.65119 -72.71685,-7.52178 -20.833595,-2.76534 -30.941894,-21.2453 -44.794908,-33.19262 -35.040703,-43.71664 20.428188,5.71316 35.461048,11.38361 59.11759,26.59094 86.33255,13.45655 112.7987,-14.61827 14.27894,-15.1469 52.79968,-4.34679 85.59129,-18.6807 44.39533,-4.3794 49.44516,-65.92979 69.28214,-76.68555 48.20161,17.13593 -10.43513,91.59874 -41.919,104.50964 z"
       id="path12745-0"
       sodipodi:nodetypes="cssassccsccc" /><path
       style="opacity:1;fill:#171717;fill-opacity:1;fill-rule:evenodd;stroke-width:9.67688"
       d="m 38.118708,202.16135 c 7.069612,-14.13924 26.707428,-18.85232 26.707428,-18.85232 l -3.142054,-25.13639 c 0,0 3.142054,7.06963 9.426159,7.06963 6.284094,0 9.426145,-19.63786 9.426145,-19.63786 0,0 31.420534,29.06399 42.417714,32.99156 10.99718,3.92756 30.63499,7.06962 30.63499,7.06962 0,0 -19.63781,14.92476 -14.92473,21.99434 4.71307,7.06964 18.8523,12.56822 18.8523,12.56822 0,0 -44.77422,10.99715 -53.41488,0.78553 -8.640654,-10.21168 -21.994369,0.78553 -38.490132,0.78553 -16.495768,0 -27.49294,-19.63786 -27.49294,-19.63786 z"
       id="path12747" /><path
       style="opacity:1;fill:#171717;fill-opacity:1;fill-rule:evenodd;stroke-width:9.67688"
       d="m 218.00115,115.75497 c 5.4986,-29.849523 36.13359,-37.508268 29.06397,-44.577884 -7.06962,-7.069613 -4.71306,-16.692132 -4.71306,-16.692132 0,0 32.20601,32.206003 42.41767,39.275627 10.21166,7.069629 10.21166,30.635019 10.21166,30.635019 0,0 -38.49011,-17.28129 -43.9887,-11.78271 -5.4986,5.49861 -32.99154,3.14208 -32.99154,3.14208 z"
       id="path12749"
       sodipodi:nodetypes="cscscsc" /><path
       style="opacity:1;fill:#303030;fill-opacity:1;fill-rule:evenodd;stroke-width:9.67688"
       d="m 59.09864,106.29144 c -5.554413,19.99591 1.110877,33.32651 1.110877,33.32651 0,0 15.552358,4.44352 16.66324,-5.55443 1.11089,-9.99795 13.3306,-15.55236 15.55236,-9.99795 2.221769,5.55443 13.330613,17.77412 13.330613,17.77412 0,0 6.6653,-31.10469 -3.33265,-35.54825 -9.997963,-4.44353 -24.439433,-11.108814 -31.104733,-11.108814 -6.665301,0 -12.219707,11.108814 -12.219707,11.108814 z"
       id="path12805" /><path
       style="opacity:1;fill:#313131;fill-opacity:1;fill-rule:evenodd;stroke-width:9.67688"
       d="m 182.40664,189.60766 c -17.77412,-24.43943 6.6653,-33.32647 28.88297,-33.32647 22.21764,0 43.32443,25.5503 39.99178,45.54619 -3.33263,19.99588 2.22178,53.32236 -17.77414,54.43324 -19.99587,1.1109 -59.98767,29.99382 -76.65091,8.88707 -16.66324,-21.10679 -21.10677,-36.65914 -3.33265,-35.54826 17.77412,1.1109 33.32648,-13.33058 15.55236,-18.885 -17.77413,-5.5544 -21.10677,-14.44147 -12.21971,-16.66326 8.88706,-2.22176 25.5503,-4.44351 25.5503,-4.44351 z"
       id="path12969" /><path
       style="opacity:1;fill:#303030;fill-opacity:1;fill-rule:evenodd;stroke-width:9.67688"
       d="m 125.75162,128.50911 c -1.11088,23.32852 11.10883,39.99177 11.10883,39.99177 0,0 24.43942,-34.43736 39.99178,-44.43531 15.55234,-9.99792 45.54622,-27.772098 37.77005,-44.435329 C 206.8461,62.967003 153.52369,57.4126 134.63869,62.967003 c -18.88501,5.554432 -34.43739,19.995896 -23.32854,32.215623 11.10882,12.219704 14.44147,33.326484 14.44147,33.326484 z"
       id="path12971" /><path
       style="opacity:1;fill:#303030;fill-opacity:1;fill-rule:evenodd;stroke-width:9.67688"
       d="m 31.326567,247.37357 c -2.22176,-13.33062 -6.665286,-44.43533 4.443531,-31.10472 11.108831,13.33058 24.439419,27.77205 37.770016,19.99588 13.330592,-7.77618 26.661186,-11.10883 26.661186,-2.22178 0,8.88707 -2.221771,14.4415 -11.108834,27.77209 -8.887058,13.33058 8.887063,26.66117 -9.99794,28.88295 -18.885009,2.22177 -27.772066,18.88503 -35.548248,1.11089 -7.77618,-17.77414 -12.219711,-44.43531 -12.219711,-44.43531 z"
       id="path12973" /><path
       style="opacity:1;fill:#0f0f0f;fill-opacity:1;fill-rule:evenodd;stroke-width:9.67688"
       d="m 66.0044,172.70463 c 1.963782,9.03337 1.963782,12.17546 1.963782,12.17546 0,0 -2.749297,-0.78553 -12.960958,4.71305 -10.211665,5.49859 -11.389931,9.0334 -11.389931,9.0334 0,0 9.03339,7.4624 12.960958,7.4624 3.92756,0 12.175443,-3.53487 22.38711,-4.32036 10.211666,-0.7855 21.208839,0.78549 24.350909,2.74933 3.14206,1.96377 11.38994,7.06959 14.13924,6.67683 2.74929,-0.39274 18.06679,-2.7493 18.06679,-2.7493 0,0 -1.57103,-0.39273 -1.96378,-2.74928 -0.39276,-2.35656 4.32031,-6.28412 4.32031,-6.28412 0,0 -23.95813,-5.89134 -31.4205,-10.21168 -7.462394,-4.32027 -19.245085,-19.24503 -19.245085,-19.24503 0,0 1.178265,3.14203 -4.713077,5.49859 -5.891346,2.35653 -16.495768,-2.74929 -16.495768,-2.74929 z"
       id="path19075" /><path
       style="opacity:1;fill:#0f0f0f;fill-opacity:1;fill-rule:evenodd;stroke-width:9.67688"
       d="m 259.61349,74.772819 c 5.2767,5.832123 -3.33265,7.498454 -10.27566,12.49741 -6.943,4.998996 -9.99795,12.497444 -9.99795,12.497444 0,0 12.77517,-4.721233 14.16376,-6.387559 1.38861,-1.666345 16.94098,-4.44356 21.93993,-0.277696 4.99897,4.165801 8.33162,4.165801 8.33162,4.165801 z"
       id="path19077" /><path
       style="opacity:1;fill:#535353;fill-opacity:1;fill-rule:evenodd;stroke-width:9.67688"
       d="m 72.707429,101.434 c -5.27669,-2.221764 -11.108829,7.49849 -11.386549,14.99694 -0.277722,7.49845 1.94404,13.60829 1.94404,13.60829 0,0 3.054931,-8.88706 9.720229,-12.4974 6.665291,-3.61039 14.996913,-2.77722 14.996913,-2.77722 0,0 -8.331622,-9.99797 -9.997942,-11.10882 -1.666322,-1.11089 -5.276691,-2.22179 -5.276691,-2.22179 z"
       id="path19079" /><path
       style="opacity:1;fill:#535353;fill-opacity:1;fill-rule:evenodd;stroke-width:9.67688"
       d="m 117.97593,81.715828 c 5.55441,-11.386557 15.83008,-14.163741 28.88294,-16.385514 13.05288,-2.221775 34.71509,0.833163 41.93582,3.332659 7.22074,2.499464 17.77415,7.776176 18.88505,13.052855 1.11089,5.276706 -1.66633,13.052894 -10.83115,18.329562 -9.16478,5.27671 -25.82802,16.94098 -25.82802,16.94098 0,0 -8.88706,-9.99795 -4.44354,-16.66324 4.44354,-6.665298 13.05288,-17.496415 -4.99896,-20.27363 -18.05184,-2.777186 -26.10574,-2.221742 -32.49332,4.165823 -6.38757,6.387576 -11.10882,-2.499495 -11.10882,-2.499495 z"
       id="path21855" /><path
       style="opacity:1;fill:#535353;fill-opacity:1;fill-rule:evenodd;stroke-width:9.67688"
       d="m 193.23821,188.63833 c -10.27566,-4.16583 -13.88602,-8.33162 -10.27566,-13.60834 3.61037,-5.27669 8.33164,-10.83108 24.16174,-10.83108 15.83008,0 34.71508,6.66528 35.82597,14.71918 1.11086,8.05388 -0.27767,21.10676 -0.27767,31.38244 0,10.27566 -0.55547,26.66117 -2.77724,28.88295 -2.22177,2.22173 -11.66427,8.88705 -14.71919,8.88705 -3.05493,0 1.94402,-14.16376 4.72124,-19.44043 2.77722,-5.27669 7.49848,-12.21972 6.6653,-21.10679 -0.83318,-8.88703 0.83318,-16.66326 -5.27669,-19.16273 -6.10985,-2.49947 -15.83006,-1.38861 -18.05185,-0.83314 -2.22176,0.55543 -19.99592,1.11089 -19.99592,1.11089 z"
       id="path23309" /><path
       style="opacity:1;fill:#535353;fill-opacity:1;fill-rule:evenodd;stroke-width:9.67688"
       d="m 68.2639,240.01666 c 10.27566,-4.999 21.939929,-9.16479 24.439418,-8.33164 2.499482,0.83318 2.7772,3.33264 1.3886,7.22074 -1.3886,3.88806 -6.109856,9.16477 -10.831105,9.99795 -4.721253,0.83312 -10.275664,4.72124 -19.440443,1.6663 -9.164788,-3.05491 -22.495376,-9.1648 -25.828027,-15.55235 -3.332644,-6.38756 -8.88706,-16.10779 -6.665291,-16.94097 2.221762,-0.83317 10.831099,14.16377 13.886029,16.10779 3.054933,1.94406 7.776182,4.16585 12.497432,4.999 4.721247,0.83318 10.553387,0.83318 10.553387,0.83318 z"
       id="path26219" /></g></svg>
