<?xml version="1.0" encoding="UTF-8" standalone="no"?>
<!-- Created with Inkscape (http://www.inkscape.org/) -->

<svg
   width="100mm"
   height="100mm"
   viewBox="0 0 100 100"
   version="1.1"
   id="svg1295"
   xml:space="preserve"
   inkscape:version="1.2 (dc2aedaf03, 2022-05-15)"
   sodipodi:docname="goldapple.svg"
   inkscape:export-filename="smallerVersions\goldapple.png"
   inkscape:export-xdpi="96"
   inkscape:export-ydpi="96"
   xmlns:inkscape="http://www.inkscape.org/namespaces/inkscape"
   xmlns:sodipodi="http://sodipodi.sourceforge.net/DTD/sodipodi-0.dtd"
   xmlns="http://www.w3.org/2000/svg"
   xmlns:svg="http://www.w3.org/2000/svg"><sodipodi:namedview
     id="namedview1297"
     pagecolor="#505050"
     bordercolor="#ffffff"
     borderopacity="1"
     inkscape:showpageshadow="0"
     inkscape:pageopacity="0"
     inkscape:pagecheckerboard="1"
     inkscape:deskcolor="#505050"
     inkscape:document-units="mm"
     showgrid="false"
     inkscape:zoom="1.4912879"
     inkscape:cx="189.76886"
     inkscape:cy="199.15672"
     inkscape:window-width="1920"
     inkscape:window-height="1017"
     inkscape:window-x="-8"
     inkscape:window-y="-8"
     inkscape:window-maximized="1"
     inkscape:current-layer="layer1" /><defs
     id="defs1292" /><g
     inkscape:label="Layer 1"
     inkscape:groupmode="layer"
     id="layer1"><path
       style="fill:#de9000;fill-opacity:1;fill-rule:evenodd;stroke:none;stroke-width:2.99274;stroke-dasharray:none;stroke-opacity:1"
       d="m 35.348803,28.121463 c 10.68322,-2.409123 22.428416,-1.770289 32.809728,1.717784 7.542175,2.534183 16.055919,6.354054 19.754583,13.398752 3.380454,6.438709 2.06934,14.89768 -0.171891,21.815898 C 83.75537,77.357605 70.56156,94.631415 65.238216,96.661224 59.18091,98.970817 40.815785,99.163569 36.035831,96.489466 31.004765,93.674638 17.299877,78.488521 13.532825,66.599902 10.798696,57.971162 9.63547,47.160022 14.391736,39.458861 18.565305,32.701397 27.600966,29.868616 35.348803,28.121463 Z"
       id="path1491"
       sodipodi:nodetypes="aaaassaaa" /><path
       style="fill:#ffc700;fill-opacity:1;fill-rule:evenodd;stroke:none;stroke-width:2.8001;stroke-dasharray:none;stroke-opacity:1"
       d="m 36.433518,30.199031 c 9.995677,-2.254053 20.98492,-1.656347 30.697961,1.607221 7.056812,2.371074 15.022495,5.945079 18.483077,12.536341 3.162925,6.024295 1.93624,13.938808 -0.160726,20.411734 C 81.724501,76.266084 69.379908,92.428174 64.399211,94.327248 58.73169,96.488193 41.548625,96.668592 37.076409,94.166534 32.369089,91.532927 19.546339,77.324256 16.021785,66.200838 13.46366,58.127474 12.375207,48.01218 16.825391,40.806709 20.730264,34.484176 29.18437,31.833736 36.433518,30.199031 Z"
       id="path1491-4"
       sodipodi:nodetypes="aaaassaaa" /><path
       style="fill:#ffdb5b;fill-opacity:1;fill-rule:evenodd;stroke:none;stroke-width:2.8001;stroke-dasharray:none;stroke-opacity:1"
       d="m 19.718394,39.038757 c 0.789728,-2.395853 4.138848,-3.212821 6.620314,-3.666824 5.352568,-0.979305 9.795965,2.948571 16.155529,2.340964 1.92344,-0.27311 4.660973,-3.239698 5.895926,-4.597392 3.28292,-3.60919 12.127361,-3.332975 16.330484,-1.630689 6.881454,2.84007 15.022494,5.945069 18.483072,12.536331 3.162927,6.024295 1.936241,13.938809 -0.160721,20.411734 C 79.313669,75.944636 66.969071,92.106725 61.988374,94.0058 67.712836,79.454685 78.459922,50.806407 64.968052,49.871907 47.72004,50.187022 32.319854,55.148463 26.419577,53.721116 16.769243,51.386577 18.034245,44.148118 19.718394,39.038757 Z"
       id="path1491-4-7"
       sodipodi:nodetypes="aacscaaccsa" /><path
       style="fill:#ffeca7;fill-opacity:1;fill-rule:evenodd;stroke:none;stroke-width:2.8001;stroke-dasharray:none;stroke-opacity:1"
       d="m 53.901171,31.367911 c 3.371096,-1.372759 9.177078,3.936785 8.036108,7.393226 -3.703719,11.220041 -31.2736,14.880507 -35.247348,3.753237 -1.742388,-4.879023 -0.59882,-5.890601 2.954704,-6.065664 3.17874,-0.156602 8.823684,2.82764 11.803634,2.532086 4.564451,-0.452709 6.206213,-5.069151 12.452902,-7.612885 z"
       id="path1491-4-7-3"
       sodipodi:nodetypes="sassss" /><path
       style="fill:#f19e05;fill-opacity:1;fill-rule:evenodd;stroke:none;stroke-width:2.80009;stroke-dasharray:none;stroke-opacity:1"
       d="m 14.665387,54.3872 c -1.132318,17.3072 18.160714,36.638321 20.251018,37.448296 2.763362,1.070803 5.303839,3.053732 10.446954,3.214456 5.143121,0.160725 12.214897,0.482164 13.018513,-0.160724 8.404309,-7.076374 -4.01343,-9.865566 -10.125514,-8.196832 C 31.763565,96.810771 18.326703,68.272627 14.665387,54.3872 Z"
       id="path2730"
       sodipodi:nodetypes="cssccc" /><path
       style="fill:#de9000;fill-opacity:1;fill-rule:evenodd;stroke-width:2.80009"
       d="m 65.778979,30.976409 c -11.137493,-2.272956 -16.933531,0.340941 -18.638253,1.704726 -1.704711,1.363769 -2.27296,3.182132 -3.63673,3.864022 -1.363771,0.681881 -3.977671,1.022831 -5.568749,-0.227294 -1.59107,-1.250129 -5.455096,-1.818367 -7.500757,-1.932018 -2.045654,-0.113647 -5.341453,-0.22729 -7.614412,0.340949 -2.272949,0.568234 -3.97767,1.93201 -3.97767,1.93201 0,0 2.272959,-3.409437 6.136986,-4.432266 3.864027,-1.022831 16.365294,-4.31862 18.183662,-4.31862 1.818362,0 9.773714,0.454594 11.592081,0.34095 1.818363,-0.113654 11.023842,2.727541 11.023842,2.727541 z"
       id="path2381"
       sodipodi:nodetypes="cssssscsssc" /><path
       style="fill:#bb6700;fill-opacity:1;fill-rule:evenodd;stroke-width:2.80009"
       d="m 34.639457,33.363024 c 3.636739,0 3.864037,1.932004 4.773216,2.045651 0.909184,0.113652 2.727552,0 3.864025,-1.59107 1.136486,-1.591067 2.38661,-2.72754 3.409436,-3.068489 1.02284,-0.340942 -3.182138,-1.136477 -6.59157,-0.227299 -3.409437,0.909188 -5.568749,1.591069 -5.90969,2.159318 -0.34095,0.568232 0.454583,0.681889 0.454583,0.681889 z"
       id="path2480" /><path
       style="fill:#99540c;fill-opacity:1;fill-rule:evenodd;stroke:none;stroke-width:2.80009;stroke-dasharray:none;stroke-opacity:1"
       d="m 39.725474,34.880114 c -6.107453,-8.67901 14.38465,-32.4257305 14.38465,-32.4257305 0,0 4.98239,7.2325056 4.98239,8.0361105 0,0.803615 -1.285772,3.053728 -1.285772,3.053728 0,0 -0.160724,-1.125052 -2.732291,-0.642891 -2.571544,0.482168 -11.250558,13.179236 -11.732728,15.590071 -0.48217,2.410837 -2.020453,6.180918 -2.020453,6.180918 z"
       id="path4973"
       sodipodi:nodetypes="ccscsscc" /><path
       style="fill:#884b00;fill-opacity:1;fill-rule:evenodd;stroke-width:2.80009"
       d="m 57.819342,13.161918 0.924153,-1.647405 -4.580584,-3.0939036 c 0,0 -0.723251,0.040219 -3.375173,4.0180556 -2.651918,3.977879 -7.754851,11.009485 -8.43792,12.576521 -0.683077,1.567044 -2.209934,7.915584 -2.209934,8.397739 0,0.48217 0.361623,1.165248 0.361623,1.165248 l 0.723251,-0.08035 c 0,0 1.888489,-5.223478 1.888489,-5.745833 0,-0.522344 1.325964,-3.294802 1.687582,-3.857332 0.361623,-0.56253 1.928666,-3.013542 1.928666,-3.013542 l 3.334992,-4.500224 1.406319,-1.727767 1.767951,-1.968851 c 0,0 0.883971,-0.803615 1.72776,-1.084876 0.843797,-0.28126 2.089396,0.08035 2.330481,0.160723 0.241076,0.08035 0.522344,0.401808 0.522344,0.401808 z"
       id="path3740" /></g></svg>
